<?xml version="1.0" encoding="utf-8"?>
<!-- Generator: Adobe Illustrator 26.2.1, SVG Export Plug-In . SVG Version: 6.00 Build 0)  -->
<svg version="1.1" id="Layer_1" xmlns="http://www.w3.org/2000/svg" xmlns:xlink="http://www.w3.org/1999/xlink" x="0px" y="0px"
	 viewBox="0 0 432 288" style="enable-background:new 0 0 432 288;" xml:space="preserve">
<style type="text/css">
	.st0{clip-path:url(#SVGID_00000006691900906335541420000002889102810943957684_);}
	.st1{opacity:0.77;fill:url(#SVGID_00000134220430977283654910000013359106019927442066_);}
	.st2{opacity:0.57;fill:url(#SVGID_00000098194600353297669450000010853799461202451895_);}
	.st3{opacity:0.35;fill:url(#SVGID_00000128459815178307177570000013507160018219114917_);}
	.st4{opacity:0.38;fill:url(#SVGID_00000003798646735318919460000002948949055594213530_);}
	.st5{opacity:0.24;fill:url(#SVGID_00000096017436169874159170000016313070251327488442_);}
	.st6{opacity:0.96;fill:url(#SVGID_00000047749896205407916250000015844133914478547117_);}
	.st7{opacity:0.72;fill:url(#SVGID_00000020372920671258390040000007489232230232851887_);}
	.st8{opacity:0.77;fill:url(#SVGID_00000139998593364942610270000006357837692966672281_);}
	.st9{opacity:0.88;fill:url(#SVGID_00000010307392624891187240000003883124267038048139_);}
	.st10{opacity:0.83;fill:url(#SVGID_00000013890800793509521020000008270947433072325016_);}
	.st11{opacity:0.21;fill:url(#SVGID_00000079473949277509914060000001045487741619434395_);}
	.st12{opacity:0.37;fill:url(#SVGID_00000152250681301199487990000002549388820096487298_);}
	.st13{opacity:0.81;fill:url(#SVGID_00000170985063223683361890000009207623739450537139_);}
	.st14{opacity:0.6;fill:url(#SVGID_00000036961165498951959150000015291607874737236668_);}
	.st15{opacity:0.73;fill:url(#SVGID_00000169520999224025499920000010877287955272471702_);}
	.st16{opacity:0.94;fill:url(#SVGID_00000090263973137299546150000000068475169516273843_);}
	.st17{opacity:0.74;fill:url(#SVGID_00000135676667807839356480000013167647417805976223_);}
	.st18{opacity:0.77;fill:url(#SVGID_00000008832158151064089780000010170024025775997092_);}
	.st19{opacity:0.57;fill:url(#SVGID_00000124854756713140342380000009935818214520876445_);}
	.st20{opacity:0.38;fill:url(#SVGID_00000041271074992224385820000014522752236631496580_);}
	.st21{opacity:0.24;fill:url(#SVGID_00000126310261089103522570000017496942222689935281_);}
	.st22{opacity:0.96;fill:url(#SVGID_00000030447299447445906360000013575814077242797224_);}
	.st23{opacity:0.72;fill:url(#SVGID_00000062888011948746221550000004460765494312577940_);}
	.st24{opacity:0.77;fill:url(#SVGID_00000004520436224649534450000008299855799752473778_);}
	.st25{opacity:0.88;fill:url(#SVGID_00000078747913870690534880000003563659084627561878_);}
	.st26{opacity:0.83;fill:url(#SVGID_00000010997570923053913070000003988779666110519950_);}
	.st27{opacity:0.21;fill:url(#SVGID_00000052079561991691680440000012898788486551353517_);}
	.st28{opacity:0.37;fill:url(#SVGID_00000105389461449093235070000001194662821203679165_);}
	.st29{opacity:0.81;fill:url(#SVGID_00000077297010180909826820000017670470289732676493_);}
	.st30{opacity:0.6;fill:url(#SVGID_00000085950974999759167310000006139897484853185726_);}
	.st31{opacity:0.94;fill:url(#SVGID_00000110434740080982939240000002318048175972335259_);}
</style>
<g>
	<g>
		<defs>
			<rect id="SVGID_1_" x="0" y="0" width="432" height="288"/>
		</defs>
		
			<linearGradient id="SVGID_00000024712775691778317810000005703789438468704661_" gradientUnits="userSpaceOnUse" x1="216" y1="-16.8267" x2="216" y2="279.7701">
			<stop  offset="0" style="stop-color:#00A3D9"/>
			<stop  offset="0.2025" style="stop-color:#2FB4E0"/>
			<stop  offset="0.6592" style="stop-color:#A4DEF1"/>
			<stop  offset="1" style="stop-color:#FFFFFF"/>
		</linearGradient>
		<use xlink:href="#SVGID_1_"  style="overflow:visible;fill:url(#SVGID_00000024712775691778317810000005703789438468704661_);"/>
		<clipPath id="SVGID_00000136408347957909052170000009377425571046997411_">
			<use xlink:href="#SVGID_1_"  style="overflow:visible;"/>
		</clipPath>
		<g style="clip-path:url(#SVGID_00000136408347957909052170000009377425571046997411_);">
			
				<linearGradient id="SVGID_00000002381680415655600540000006666628007113878148_" gradientUnits="userSpaceOnUse" x1="61.6719" y1="311.8214" x2="61.6719" y2="157.3846">
				<stop  offset="0.4752" style="stop-color:#000000"/>
				<stop  offset="0.5807" style="stop-color:#030303"/>
				<stop  offset="0.6536" style="stop-color:#0C0C0C"/>
				<stop  offset="0.7167" style="stop-color:#1B1B1B"/>
				<stop  offset="0.7742" style="stop-color:#313131"/>
				<stop  offset="0.828" style="stop-color:#4D4D4D"/>
				<stop  offset="0.8789" style="stop-color:#707070"/>
				<stop  offset="0.9276" style="stop-color:#999999"/>
				<stop  offset="0.9734" style="stop-color:#C7C7C7"/>
				<stop  offset="1" style="stop-color:#E6E6E6"/>
			</linearGradient>
			<path style="opacity:0.77;fill:url(#SVGID_00000002381680415655600540000006666628007113878148_);" d="M129.1,243.46
				c10.12-11.24,12.18-26.78,3.68-39.97c-9.35-14.51-28.59-21.74-47.05-19.05c-0.49-3.77-1.82-7.52-4.1-11.06
				c-9.51-14.76-31.58-20.3-49.29-12.38c-3.71,1.65-6.9,3.79-9.59,6.24c-9.57-8.31-24.18-11.46-37.49-7.84v152.26
				c7.52,0.17,15.19-1.24,22.29-4.41c6.26-2.8,11.39-6.67,15.25-11.19c12.82,15.18,37.52,20.33,57.64,11.33
				c11.56-5.17,19.24-13.98,22.18-23.82c6.03,0.76,12.39-0.02,18.17-2.61c14.27-6.39,19.62-21.19,11.96-33.08
				C131.73,246.27,130.49,244.8,129.1,243.46z"/>
			
				<linearGradient id="SVGID_00000134220906387275734830000007958884379840574872_" gradientUnits="userSpaceOnUse" x1="175.6194" y1="193.4022" x2="175.6194" y2="121.622">
				<stop  offset="0.4752" style="stop-color:#000000"/>
				<stop  offset="0.5807" style="stop-color:#030303"/>
				<stop  offset="0.6536" style="stop-color:#0C0C0C"/>
				<stop  offset="0.7167" style="stop-color:#1B1B1B"/>
				<stop  offset="0.7742" style="stop-color:#313131"/>
				<stop  offset="0.828" style="stop-color:#4D4D4D"/>
				<stop  offset="0.8789" style="stop-color:#707070"/>
				<stop  offset="0.9276" style="stop-color:#999999"/>
				<stop  offset="0.9734" style="stop-color:#C7C7C7"/>
				<stop  offset="1" style="stop-color:#E6E6E6"/>
			</linearGradient>
			<path style="opacity:0.57;fill:url(#SVGID_00000134220906387275734830000007958884379840574872_);" d="M224.1,143.05
				c-4.34-6.74-13.29-10.11-21.87-8.86c-0.23-1.75-0.85-3.49-1.91-5.14c-4.42-6.86-14.68-9.44-22.91-5.75
				c-1.72,0.77-3.21,1.76-4.46,2.9c-5.12-4.45-13.35-5.72-20.19-2.66c-7.82,3.49-10.99,11.37-7.51,18.03
				c-3.82-0.71-7.95-0.33-11.66,1.33c-8.24,3.68-11.33,12.23-6.91,19.09c2.28,3.54,6.13,5.94,10.45,6.92
				c-2.56,4.73-2.55,10.37,0.63,15.3c5.43,8.42,18.02,11.58,28.13,7.06c2.91-1.3,5.3-3.1,7.09-5.2c5.96,7.06,17.44,9.45,26.79,5.27
				c5.37-2.4,8.94-6.5,10.31-11.07c2.8,0.35,5.76-0.01,8.45-1.21c6.63-2.97,9.12-9.85,5.56-15.37c-0.48-0.75-1.06-1.44-1.71-2.06
				C227.09,156.4,228.05,149.18,224.1,143.05z"/>
			
				<linearGradient id="SVGID_00000116917238484876498660000011012516282788833955_" gradientUnits="userSpaceOnUse" x1="11.8511" y1="218.7513" x2="11.8511" y2="105.3733">
				<stop  offset="0.4752" style="stop-color:#000000"/>
				<stop  offset="0.5807" style="stop-color:#030303"/>
				<stop  offset="0.6536" style="stop-color:#0C0C0C"/>
				<stop  offset="0.7167" style="stop-color:#1B1B1B"/>
				<stop  offset="0.7742" style="stop-color:#313131"/>
				<stop  offset="0.828" style="stop-color:#4D4D4D"/>
				<stop  offset="0.8789" style="stop-color:#707070"/>
				<stop  offset="0.9276" style="stop-color:#999999"/>
				<stop  offset="0.9734" style="stop-color:#C7C7C7"/>
				<stop  offset="1" style="stop-color:#E6E6E6"/>
			</linearGradient>
			<path style="opacity:0.35;fill:url(#SVGID_00000116917238484876498660000011012516282788833955_);" d="M21.2,125.17
				c-7.03-2.7-14.66-2.88-21.49-1.05c-1.31-6.87-6.47-13.1-14.46-16.41v103.64c13.52,2.79,27.95-2.71,34-13.64
				c4.92-8.89,2.93-18.94-4.06-26.02c8.72-1.62,16.49-6.47,20.51-13.75C42.57,145.54,36.07,130.87,21.2,125.17z"/>
			
				<linearGradient id="SVGID_00000106129265095853335320000013854232265880893083_" gradientUnits="userSpaceOnUse" x1="422.5093" y1="226.3676" x2="422.5093" y2="130.7408">
				<stop  offset="0.4752" style="stop-color:#000000"/>
				<stop  offset="0.5807" style="stop-color:#030303"/>
				<stop  offset="0.6536" style="stop-color:#0C0C0C"/>
				<stop  offset="0.7167" style="stop-color:#1B1B1B"/>
				<stop  offset="0.7742" style="stop-color:#313131"/>
				<stop  offset="0.828" style="stop-color:#4D4D4D"/>
				<stop  offset="0.8789" style="stop-color:#707070"/>
				<stop  offset="0.9276" style="stop-color:#999999"/>
				<stop  offset="0.9734" style="stop-color:#C7C7C7"/>
				<stop  offset="1" style="stop-color:#E6E6E6"/>
			</linearGradient>
			<path style="opacity:0.38;fill:url(#SVGID_00000106129265095853335320000013854232265880893083_);" d="M455.81,133.27
				c-7.24-0.29-14.33,2.48-18.61,7.54c-2.48-2.42-5.61-4.44-9.3-5.86c-13.68-5.25-29.87-0.26-36.17,11.13
				c-5.66,10.23-1.43,22.14,9.39,28.28c-1.8,1.44-3.31,3.19-4.42,5.19c-4.76,8.62-0.24,18.83,10.1,22.8
				c7.14,2.74,15.18,1.8,21.05-1.88c1.78,7.07,7.42,13.37,15.9,16.63c3.92,1.51,8.04,2.19,12.08,2.16V133.27z"/>
			
				<linearGradient id="SVGID_00000129901761776506238170000001653033267503342243_" gradientUnits="userSpaceOnUse" x1="431.5401" y1="246.9775" x2="431.5401" y2="84.16">
				<stop  offset="0.4752" style="stop-color:#000000"/>
				<stop  offset="0.5807" style="stop-color:#030303"/>
				<stop  offset="0.6536" style="stop-color:#0C0C0C"/>
				<stop  offset="0.7167" style="stop-color:#1B1B1B"/>
				<stop  offset="0.7742" style="stop-color:#313131"/>
				<stop  offset="0.828" style="stop-color:#4D4D4D"/>
				<stop  offset="0.8789" style="stop-color:#707070"/>
				<stop  offset="0.9276" style="stop-color:#999999"/>
				<stop  offset="0.9734" style="stop-color:#C7C7C7"/>
				<stop  offset="1" style="stop-color:#E6E6E6"/>
			</linearGradient>
			<path style="opacity:0.24;fill:url(#SVGID_00000129901761776506238170000001653033267503342243_);" d="M455.81,113.98
				c-7.99,2.67-14.93,7.64-19.23,14.49c-2.77,4.42-4.11,9.13-4.23,13.79c-8.65,2.51-16.23,7.63-20.81,14.93
				c-9.57,15.23-2.5,34.04,15.77,42.01c7.56,3.29,15.85,4.18,23.65,3.06c0.72,5.07,2.37,10.02,4.85,14.68V113.98z"/>
			
				<linearGradient id="SVGID_00000080200731599526272310000013444440602586914717_" gradientUnits="userSpaceOnUse" x1="259.3249" y1="204.5446" x2="259.3249" y2="125.5578">
				<stop  offset="0.4752" style="stop-color:#000000"/>
				<stop  offset="0.5807" style="stop-color:#030303"/>
				<stop  offset="0.6536" style="stop-color:#0C0C0C"/>
				<stop  offset="0.7167" style="stop-color:#1B1B1B"/>
				<stop  offset="0.7742" style="stop-color:#313131"/>
				<stop  offset="0.828" style="stop-color:#4D4D4D"/>
				<stop  offset="0.8789" style="stop-color:#707070"/>
				<stop  offset="0.9276" style="stop-color:#999999"/>
				<stop  offset="0.9734" style="stop-color:#C7C7C7"/>
				<stop  offset="1" style="stop-color:#E6E6E6"/>
			</linearGradient>
			<path style="opacity:0.96;fill:url(#SVGID_00000080200731599526272310000013444440602586914717_);" d="M312.87,143.66
				c-4.5-1.96-9.42-2.56-14.09-2c-1.58-4.08-4.99-7.66-9.91-9.81c-7.51-3.27-16.35-2.25-22.47,2.02c-1.85-2.62-4.59-4.86-8.07-6.38
				c-9.94-4.34-22.22-1.13-27.43,7.15c-1,1.59-1.66,3.26-2.01,4.94c-8.2-2.08-17.28,0.92-21.4,7.47c-1.34,2.14-1.99,4.43-2.05,6.69
				c-4.2,1.22-7.87,3.7-10.1,7.24c-4.64,7.39-1.21,16.51,7.65,20.38c3.67,1.6,7.69,2.03,11.47,1.49c1.11,7.78,6.65,14.98,15.6,18.88
				c12.58,5.48,27.73,2.66,36.41-6.12c1.95,2.35,4.58,4.35,7.83,5.77c10.66,4.65,23.82,1.21,29.4-7.67
				c2.75-4.38,3.13-9.26,1.55-13.64c7.19-0.84,13.81-4.44,17.44-10.21C328.68,160.37,324.28,148.63,312.87,143.66z"/>
			
				<linearGradient id="SVGID_00000129176497116027146850000018091042209982758333_" gradientUnits="userSpaceOnUse" x1="73.5947" y1="252.4646" x2="73.5947" y2="130.5669">
				<stop  offset="0.4752" style="stop-color:#000000"/>
				<stop  offset="0.5807" style="stop-color:#030303"/>
				<stop  offset="0.6536" style="stop-color:#0C0C0C"/>
				<stop  offset="0.7167" style="stop-color:#1B1B1B"/>
				<stop  offset="0.7742" style="stop-color:#313131"/>
				<stop  offset="0.828" style="stop-color:#4D4D4D"/>
				<stop  offset="0.8789" style="stop-color:#707070"/>
				<stop  offset="0.9276" style="stop-color:#999999"/>
				<stop  offset="0.9734" style="stop-color:#C7C7C7"/>
				<stop  offset="1" style="stop-color:#E6E6E6"/>
			</linearGradient>
			<path style="opacity:0.72;fill:url(#SVGID_00000129176497116027146850000018091042209982758333_);" d="M155.9,189.19
				c0-9.35-6.62-17.39-16.15-21.1c0.15-1.17,0.23-2.36,0.23-3.56c0-18.76-18.25-33.96-40.75-33.96c-13.17,0-24.88,5.22-32.33,13.3
				c-5.46-3.52-12.29-5.63-19.73-5.63c-17.82,0-32.27,12.04-32.27,26.89c0,1.94,0.25,3.81,0.71,5.63c-0.24-0.01-0.47-0.01-0.71-0.01
				c-13.04,0-23.62,8.81-23.62,19.68c0,8.81,6.95,16.27,16.52,18.78c-1.51,2.99-2.34,6.28-2.34,9.73c0,13.89,13.52,25.17,30.2,25.17
				c0.78,0,1.55-0.03,2.32-0.08c4.89,5.14,12.43,8.44,20.9,8.44c9.15,0,17.22-3.84,22.04-9.69c3.03,0.85,6.27,1.33,9.66,1.33
				c10.03,0,18.9-4.1,24.39-10.37c2.9,0.9,6.03,1.42,9.31,1.42c14.74,0,26.69-9.96,26.69-22.24c0-2.98-0.72-5.81-1.99-8.41
				C153.28,200.4,155.9,195.06,155.9,189.19z"/>
			
				<linearGradient id="SVGID_00000065794381784728909250000000637066075511633548_" gradientUnits="userSpaceOnUse" x1="374.9304" y1="261.4733" x2="374.9304" y2="195.8263">
				<stop  offset="0.4752" style="stop-color:#000000"/>
				<stop  offset="0.5807" style="stop-color:#030303"/>
				<stop  offset="0.6536" style="stop-color:#0C0C0C"/>
				<stop  offset="0.7167" style="stop-color:#1B1B1B"/>
				<stop  offset="0.7742" style="stop-color:#313131"/>
				<stop  offset="0.828" style="stop-color:#4D4D4D"/>
				<stop  offset="0.8789" style="stop-color:#707070"/>
				<stop  offset="0.9276" style="stop-color:#999999"/>
				<stop  offset="0.9734" style="stop-color:#C7C7C7"/>
				<stop  offset="1" style="stop-color:#E6E6E6"/>
			</linearGradient>
			<path style="opacity:0.77;fill:url(#SVGID_00000065794381784728909250000000637066075511633548_);" d="M419.26,227.4
				c0-5.03-3.57-9.36-8.7-11.36c0.08-0.63,0.12-1.27,0.12-1.92c0-10.1-9.83-18.29-21.95-18.29c-7.09,0-13.4,2.81-17.41,7.16
				c-2.94-1.9-6.62-3.03-10.62-3.03c-9.6,0-17.38,6.48-17.38,14.48c0,1.04,0.13,2.05,0.38,3.03c-0.13-0.01-0.25-0.01-0.38-0.01
				c-7.02,0-12.72,4.74-12.72,10.6c0,4.74,3.74,8.76,8.9,10.11c-0.81,1.61-1.26,3.38-1.26,5.24c0,7.48,7.28,13.55,16.26,13.55
				c0.42,0,0.84-0.01,1.25-0.04c2.64,2.77,6.69,4.54,11.26,4.54c4.93,0,9.28-2.07,11.87-5.22c1.63,0.46,3.38,0.72,5.2,0.72
				c5.4,0,10.18-2.21,13.13-5.59c1.56,0.49,3.25,0.76,5.01,0.76c7.94,0,14.38-5.36,14.38-11.98c0-1.6-0.39-3.13-1.07-4.53
				C417.85,233.43,419.26,230.56,419.26,227.4z"/>
			
				<linearGradient id="SVGID_00000152236184121097865370000008705904694157760658_" gradientUnits="userSpaceOnUse" x1="304.86" y1="286.9179" x2="304.86" y2="148.0014">
				<stop  offset="0.4752" style="stop-color:#000000"/>
				<stop  offset="0.5807" style="stop-color:#030303"/>
				<stop  offset="0.6536" style="stop-color:#0C0C0C"/>
				<stop  offset="0.7167" style="stop-color:#1B1B1B"/>
				<stop  offset="0.7742" style="stop-color:#313131"/>
				<stop  offset="0.828" style="stop-color:#4D4D4D"/>
				<stop  offset="0.8789" style="stop-color:#707070"/>
				<stop  offset="0.9276" style="stop-color:#999999"/>
				<stop  offset="0.9734" style="stop-color:#C7C7C7"/>
				<stop  offset="1" style="stop-color:#E6E6E6"/>
			</linearGradient>
			<path style="opacity:0.88;fill:url(#SVGID_00000152236184121097865370000008705904694157760658_);" d="M398.68,223.19
				c-2.61-2.35-5.73-4.31-9.2-5.77c6.48-4.69,11.07-11.13,12.68-18.44c0.43-1.91,0.64-3.86,0.64-5.86
				c0-17.75-17.26-32.14-38.56-32.14c-8.54,0-16.43,2.31-22.83,6.23C335.45,155.9,321.88,148,306.1,148
				c-18.93,0-34.62,11.36-37.91,26.34c-6.92-4.47-15.56-7.16-24.99-7.16c-22.57,0-40.86,15.24-40.86,34.05
				c0,16.44,14,30.17,32.61,33.35c-2.63,4.22-4.14,9.01-4.14,14.1c0,16.9,16.44,30.61,36.73,30.61c9.11,0,17.45-2.76,23.86-7.34
				c6.4,8.97,18.14,14.97,31.59,14.97c16.63,0,30.67-9.21,35.2-21.85c4.86,2.41,10.53,3.78,16.59,3.78
				c18.01,0,32.61-12.17,32.61-27.18C407.38,234.54,404.08,228.05,398.68,223.19z"/>
			
				<linearGradient id="SVGID_00000090284888242556243600000003940595858607451784_" gradientUnits="userSpaceOnUse" x1="352.5318" y1="269.8028" x2="352.5318" y2="126.7879">
				<stop  offset="0.4752" style="stop-color:#000000"/>
				<stop  offset="0.5807" style="stop-color:#030303"/>
				<stop  offset="0.6536" style="stop-color:#0C0C0C"/>
				<stop  offset="0.7167" style="stop-color:#1B1B1B"/>
				<stop  offset="0.7742" style="stop-color:#313131"/>
				<stop  offset="0.828" style="stop-color:#4D4D4D"/>
				<stop  offset="0.8789" style="stop-color:#707070"/>
				<stop  offset="0.9276" style="stop-color:#999999"/>
				<stop  offset="0.9734" style="stop-color:#C7C7C7"/>
				<stop  offset="1" style="stop-color:#E6E6E6"/>
			</linearGradient>
			<path style="opacity:0.83;fill:url(#SVGID_00000090284888242556243600000003940595858607451784_);" d="M455.81,146.64
				c-6.66-8.76-18.08-14.83-31.45-15.47c-11.02-0.53-21.24,2.7-28.88,8.35c-4.68-7.15-13.55-12.19-24.02-12.69
				c-9.41-0.45-18.01,2.87-23.76,8.37c-5.63-3.55-12.54-5.8-20.12-6.16c-20.38-0.98-37.86,12-39.03,28.98
				c-0.22,3.12,0.14,6.15,0.98,9.04c-0.84,1.15-1.55,2.37-2.19,3.61c-19.95-0.51-36.88,12.28-38.04,28.99
				c-1.18,16.98,14.39,31.55,34.77,32.52c2.21,0.11,4.38,0.02,6.51-0.19c3.79,8.6,13.4,14.95,25.08,15.52
				c5.13,0.25,10.04-0.66,14.33-2.45c3.82,13.47,17.89,23.84,35.32,24.68c16.2,0.78,30.65-6.9,37.16-18.42
				c6.03,4.02,13.56,6.58,21.85,6.98c12.5,0.6,23.91-3.84,31.48-11.18V146.64z"/>
			
				<linearGradient id="SVGID_00000129888769895998002520000009806119876311634602_" gradientUnits="userSpaceOnUse" x1="428.0311" y1="295.6148" x2="428.0311" y2="168.9476">
				<stop  offset="0.4752" style="stop-color:#000000"/>
				<stop  offset="0.5807" style="stop-color:#030303"/>
				<stop  offset="0.6536" style="stop-color:#0C0C0C"/>
				<stop  offset="0.7167" style="stop-color:#1B1B1B"/>
				<stop  offset="0.7742" style="stop-color:#313131"/>
				<stop  offset="0.828" style="stop-color:#4D4D4D"/>
				<stop  offset="0.8789" style="stop-color:#707070"/>
				<stop  offset="0.9276" style="stop-color:#999999"/>
				<stop  offset="0.9734" style="stop-color:#C7C7C7"/>
				<stop  offset="1" style="stop-color:#E6E6E6"/>
			</linearGradient>
			<path style="opacity:0.21;fill:url(#SVGID_00000129888769895998002520000009806119876311634602_);" d="M455.81,172.78
				c-11.53,3.77-19.99,12.85-20.75,23.84c-0.19,2.76,0.12,5.44,0.87,8c-0.74,1.02-1.38,2.1-1.94,3.2
				c-17.67-0.45-32.67,10.88-33.69,25.68c-1.04,15.04,12.75,27.94,30.8,28.81c1.96,0.1,3.88,0.02,5.77-0.17
				c2.99,6.79,10.1,12,18.94,13.39V172.78z"/>
			
				<linearGradient id="SVGID_00000150063053609006996290000006074129813400456322_" gradientUnits="userSpaceOnUse" x1="451.0668" y1="296.6751" x2="451.0668" y2="138.1029">
				<stop  offset="0.4752" style="stop-color:#000000"/>
				<stop  offset="0.5807" style="stop-color:#030303"/>
				<stop  offset="0.6536" style="stop-color:#0C0C0C"/>
				<stop  offset="0.7167" style="stop-color:#1B1B1B"/>
				<stop  offset="0.7742" style="stop-color:#313131"/>
				<stop  offset="0.828" style="stop-color:#4D4D4D"/>
				<stop  offset="0.8789" style="stop-color:#707070"/>
				<stop  offset="0.9276" style="stop-color:#999999"/>
				<stop  offset="0.9734" style="stop-color:#C7C7C7"/>
				<stop  offset="1" style="stop-color:#E6E6E6"/>
			</linearGradient>
			<path style="opacity:0.37;fill:url(#SVGID_00000150063053609006996290000006074129813400456322_);" d="M455.81,197.43
				c-1.82,1.52-3.46,3.24-4.84,5.16c-7.84,10.87-5.45,24.48,4.84,33.07V197.43z"/>
			
				<linearGradient id="SVGID_00000011015081422141078400000015789632785422859181_" gradientUnits="userSpaceOnUse" x1="226.538" y1="309.8661" x2="226.538" y2="142.15">
				<stop  offset="0.4752" style="stop-color:#000000"/>
				<stop  offset="0.5807" style="stop-color:#030303"/>
				<stop  offset="0.6536" style="stop-color:#0C0C0C"/>
				<stop  offset="0.7167" style="stop-color:#1B1B1B"/>
				<stop  offset="0.7742" style="stop-color:#313131"/>
				<stop  offset="0.828" style="stop-color:#4D4D4D"/>
				<stop  offset="0.8789" style="stop-color:#707070"/>
				<stop  offset="0.9276" style="stop-color:#999999"/>
				<stop  offset="0.9734" style="stop-color:#C7C7C7"/>
				<stop  offset="1" style="stop-color:#E6E6E6"/>
			</linearGradient>
			<path style="opacity:0.81;fill:url(#SVGID_00000011015081422141078400000015789632785422859181_);" d="M344.42,221.69
				c-2.99-1.5-6.14-2.57-9.36-3.23c5.01-14.07-1.73-29.7-17.53-37.62c-9.97-4.99-21.51-5.86-31.83-3.26
				c-1.38-11.94-9.28-23.19-22.56-29.84c-22.23-11.13-51.07-5.13-64.43,13.39c-0.61,0.84-1.16,1.69-1.68,2.56
				c-0.78-0.45-1.54-0.91-2.36-1.32c-20.96-10.49-48.15-4.84-60.75,12.63c-4.84,6.73-6.8,14.22-6.19,21.5
				c-12.11-0.38-24.1,4.59-30.78,13.86c-9.78,13.56-4.51,31.16,11.77,39.31c5.68,2.84,11.96,4.16,18.14,4.09
				c-3.43,8.66,0.64,18.45,10.42,23.35c2.18,1.09,4.49,1.85,6.84,2.31c2.58,8.81,9.21,16.81,19.28,21.85
				c0.06,0.03,0.13,0.06,0.2,0.09c2,1.88,4.36,3.55,7.08,4.91c13.99,7,32,3.49,40.9-7.74c1.14-0.77,2.24-1.58,3.3-2.45
				c1.26,1.01,2.63,1.95,4.19,2.73c9.99,5,22.6,3.17,30.06-3.84c3.15,3.44,7.1,6.48,11.82,8.84c20.01,10.01,45.96,4.62,57.99-12.05
				c3.89-5.39,5.81-11.3,6-17.17c12.23,0.54,24.42-4.41,31.17-13.78C365.86,247.3,360.61,229.79,344.42,221.69z"/>
			
				<linearGradient id="SVGID_00000063613826225128481120000009713823500984745618_" gradientUnits="userSpaceOnUse" x1="386.7066" y1="317.1169" x2="386.7066" y2="151.8287">
				<stop  offset="0.4752" style="stop-color:#000000"/>
				<stop  offset="0.5807" style="stop-color:#030303"/>
				<stop  offset="0.6536" style="stop-color:#0C0C0C"/>
				<stop  offset="0.7167" style="stop-color:#1B1B1B"/>
				<stop  offset="0.7742" style="stop-color:#313131"/>
				<stop  offset="0.828" style="stop-color:#4D4D4D"/>
				<stop  offset="0.8789" style="stop-color:#707070"/>
				<stop  offset="0.9276" style="stop-color:#999999"/>
				<stop  offset="0.9734" style="stop-color:#C7C7C7"/>
				<stop  offset="1" style="stop-color:#E6E6E6"/>
			</linearGradient>
			<path style="opacity:0.6;fill:url(#SVGID_00000063613826225128481120000009713823500984745618_);" d="M455.81,160.88
				c-3.49,2.34-6.62,5.09-9.26,8.2c-16.36-2.96-33.11,4.76-38.54,18.3c-0.07,0.19-0.15,0.38-0.21,0.57
				c-2.04-0.96-4.24-1.78-6.55-2.42c-19.48-5.42-40.55,3.35-47.05,19.58c-0.93,2.31-1.5,4.66-1.76,6.98
				c-14.72,1.91-27.68,10.45-32.72,23.03c-7.19,17.96,4.45,37.38,26.01,43.38c7.62,2.12,15.46,2.23,22.73,0.76
				c1.44,15.94,14.08,30.37,33.42,35.75c20.08,5.58,41.42-0.25,53.9-13.28c0.01,0.01,0.02,0.02,0.03,0.03V160.88z"/>
			
				<linearGradient id="SVGID_00000119090637520536131710000003295309750697877386_" gradientUnits="userSpaceOnUse" x1="-0.242" y1="245.0614" x2="-0.242" y2="71.5006">
				<stop  offset="0.4752" style="stop-color:#000000"/>
				<stop  offset="0.5807" style="stop-color:#030303"/>
				<stop  offset="0.6536" style="stop-color:#0C0C0C"/>
				<stop  offset="0.7167" style="stop-color:#1B1B1B"/>
				<stop  offset="0.7742" style="stop-color:#313131"/>
				<stop  offset="0.828" style="stop-color:#4D4D4D"/>
				<stop  offset="0.8789" style="stop-color:#707070"/>
				<stop  offset="0.9276" style="stop-color:#999999"/>
				<stop  offset="0.9734" style="stop-color:#C7C7C7"/>
				<stop  offset="1" style="stop-color:#E6E6E6"/>
			</linearGradient>
			<path style="opacity:0.73;fill:url(#SVGID_00000119090637520536131710000003295309750697877386_);" d="M-9.58,120.66
				c-1.71-0.48-3.44-0.82-5.16-1.06v100.97c7.99-4.28,14.35-10.77,17.59-18.86c4.11-10.25,2.34-20.94-3.74-29.58
				c6.04-3.45,10.85-8.49,13.35-14.73C18.55,142.19,8.68,125.74-9.58,120.66z"/>
			
				<linearGradient id="SVGID_00000089549856632959360380000003649534209534069155_" gradientUnits="userSpaceOnUse" x1="146.239" y1="248.198" x2="146.239" y2="192.4154">
				<stop  offset="0.4752" style="stop-color:#000000"/>
				<stop  offset="0.5807" style="stop-color:#030303"/>
				<stop  offset="0.6536" style="stop-color:#0C0C0C"/>
				<stop  offset="0.7167" style="stop-color:#1B1B1B"/>
				<stop  offset="0.7742" style="stop-color:#313131"/>
				<stop  offset="0.828" style="stop-color:#4D4D4D"/>
				<stop  offset="0.8789" style="stop-color:#707070"/>
				<stop  offset="0.9276" style="stop-color:#999999"/>
				<stop  offset="0.9734" style="stop-color:#C7C7C7"/>
				<stop  offset="1" style="stop-color:#E6E6E6"/>
			</linearGradient>
			<path style="opacity:0.94;fill:url(#SVGID_00000089549856632959360380000003649534209534069155_);" d="M189.29,215.75
				c0-7.76-7.55-14.04-16.86-14.04c-0.74,0-1.46,0.04-2.18,0.12c-1.42-4.3-5.5-7.86-11.07-9.02c-7.01-1.47-14.11,1.35-17.33,6.45
				c-1.19-0.59-2.5-1.05-3.91-1.35c-7.81-1.63-15.72,2.32-17.68,8.82l-0.02,0.07c-0.46-0.15-0.93-0.27-1.42-0.37
				c-6.73-1.41-13.56,2-15.25,7.61c-1.69,5.61,2.4,11.3,9.13,12.71c0.07,0.02,0.15,0.03,0.22,0.05c-0.39,0.67-0.68,1.39-0.86,2.15
				c-1.15,4.83,2.61,9.52,8.41,10.48c1.9,0.31,3.78,0.18,5.49-0.3c1.52,4.15,5.54,7.55,10.96,8.69c6.18,1.29,12.42-0.73,16.02-4.73
				c0.98,0.41,2.02,0.74,3.13,0.97c8.07,1.69,16.25-2.4,18.28-9.12c0.53-1.78,0.58-3.56,0.22-5.26
				C182.86,228.81,189.29,222.9,189.29,215.75z"/>
			
				<linearGradient id="SVGID_00000107580766310768332140000007830010087816924802_" gradientUnits="userSpaceOnUse" x1="29.2953" y1="218.1021" x2="29.2953" y2="134.0251">
				<stop  offset="0.4752" style="stop-color:#000000"/>
				<stop  offset="0.5807" style="stop-color:#030303"/>
				<stop  offset="0.6536" style="stop-color:#0C0C0C"/>
				<stop  offset="0.7167" style="stop-color:#1B1B1B"/>
				<stop  offset="0.7742" style="stop-color:#313131"/>
				<stop  offset="0.828" style="stop-color:#4D4D4D"/>
				<stop  offset="0.8789" style="stop-color:#707070"/>
				<stop  offset="0.9276" style="stop-color:#999999"/>
				<stop  offset="0.9734" style="stop-color:#C7C7C7"/>
				<stop  offset="1" style="stop-color:#E6E6E6"/>
			</linearGradient>
			<path style="opacity:0.74;fill:url(#SVGID_00000107580766310768332140000007830010087816924802_);" d="M73.33,169.19
				c0-11.69-11.37-21.17-25.4-21.17c-1.11,0-2.21,0.07-3.28,0.18c-2.15-6.48-8.3-11.84-16.68-13.59
				c-10.57-2.21-21.26,2.03-26.11,9.73c-1.79-0.89-3.77-1.58-5.9-2.03c-3.64-0.76-7.29-0.71-10.69,0v71.35
				c2.58,1.79,5.67,3.14,9.14,3.86c9.31,1.95,18.72-1.11,24.14-7.12c1.47,0.62,3.05,1.12,4.71,1.47
				c12.16,2.54,24.49-3.61,27.55-13.75c0.81-2.68,0.87-5.37,0.33-7.92C63.65,188.88,73.33,179.98,73.33,169.19z"/>
		</g>
		<g style="clip-path:url(#SVGID_00000136408347957909052170000009377425571046997411_);">
			
				<linearGradient id="SVGID_00000065783917974289190660000007774196872801639322_" gradientUnits="userSpaceOnUse" x1="-2486.6267" y1="-3300.5183" x2="-2486.6267" y2="-3454.9551" gradientTransform="matrix(-1 0 0 -1 -2047.3116 -3136.9746)">
				<stop  offset="0" style="stop-color:#E6E6E6"/>
				<stop  offset="0.0266" style="stop-color:#C7C7C7"/>
				<stop  offset="0.0724" style="stop-color:#999999"/>
				<stop  offset="0.1211" style="stop-color:#707070"/>
				<stop  offset="0.172" style="stop-color:#4D4D4D"/>
				<stop  offset="0.2258" style="stop-color:#313131"/>
				<stop  offset="0.2833" style="stop-color:#1B1B1B"/>
				<stop  offset="0.3464" style="stop-color:#0C0C0C"/>
				<stop  offset="0.4193" style="stop-color:#030303"/>
				<stop  offset="0.5248" style="stop-color:#000000"/>
			</linearGradient>
			<path style="opacity:0.77;fill:url(#SVGID_00000065783917974289190660000007774196872801639322_);" d="M455.81,191.58
				c-5.28-0.29-10.71,0.59-15.72,2.82c-14.27,6.39-19.62,21.19-11.96,33.08c1.04,1.62,2.29,3.09,3.67,4.43
				c-10.12,11.24-12.18,26.78-3.68,39.97c6.05,9.39,16.24,15.73,27.68,18.3V191.58z"/>
			
				<linearGradient id="SVGID_00000150797340065875208250000010499703350329358256_" gradientUnits="userSpaceOnUse" x1="-2427.4927" y1="-3398.5283" x2="-2427.4927" y2="-3470.3083" gradientTransform="matrix(-1 0 0 -1 -2047.3116 -3136.9746)">
				<stop  offset="0" style="stop-color:#E6E6E6"/>
				<stop  offset="0.0266" style="stop-color:#C7C7C7"/>
				<stop  offset="0.0724" style="stop-color:#999999"/>
				<stop  offset="0.1211" style="stop-color:#707070"/>
				<stop  offset="0.172" style="stop-color:#4D4D4D"/>
				<stop  offset="0.2258" style="stop-color:#313131"/>
				<stop  offset="0.2833" style="stop-color:#1B1B1B"/>
				<stop  offset="0.3464" style="stop-color:#0C0C0C"/>
				<stop  offset="0.4193" style="stop-color:#030303"/>
				<stop  offset="0.5248" style="stop-color:#000000"/>
			</linearGradient>
			<path style="opacity:0.57;fill:url(#SVGID_00000150797340065875208250000010499703350329358256_);" d="M331.7,311.91
				c4.34,6.74,13.29,10.11,21.87,8.86c0.23,1.75,0.85,3.49,1.91,5.14c4.42,6.86,14.68,9.44,22.91,5.75c1.72-0.77,3.21-1.76,4.46-2.9
				c5.12,4.45,13.35,5.72,20.19,2.66c7.82-3.49,10.99-11.37,7.51-18.03c3.82,0.71,7.95,0.33,11.66-1.33
				c8.24-3.68,11.33-12.23,6.91-19.09c-2.29-3.54-6.13-5.94-10.45-6.92c2.56-4.73,2.55-10.37-0.63-15.3
				c-5.43-8.42-18.02-11.58-28.13-7.06c-2.91,1.3-5.3,3.1-7.09,5.2c-5.96-7.06-17.44-9.45-26.79-5.27
				c-5.37,2.4-8.94,6.5-10.31,11.07c-2.8-0.35-5.76,0.01-8.45,1.21c-6.63,2.97-9.12,9.85-5.56,15.37c0.48,0.75,1.06,1.44,1.71,2.06
				C328.71,298.55,327.75,305.77,331.7,311.91z"/>
			
				<linearGradient id="SVGID_00000121963954770983321460000006540563776152411829_" gradientUnits="userSpaceOnUse" x1="-2140.4795" y1="-3385.9722" x2="-2140.4795" y2="-3481.5989" gradientTransform="matrix(-1 0 0 -1 -2047.3116 -3136.9746)">
				<stop  offset="0" style="stop-color:#E6E6E6"/>
				<stop  offset="0.0266" style="stop-color:#C7C7C7"/>
				<stop  offset="0.0724" style="stop-color:#999999"/>
				<stop  offset="0.1211" style="stop-color:#707070"/>
				<stop  offset="0.172" style="stop-color:#4D4D4D"/>
				<stop  offset="0.2258" style="stop-color:#313131"/>
				<stop  offset="0.2833" style="stop-color:#1B1B1B"/>
				<stop  offset="0.3464" style="stop-color:#0C0C0C"/>
				<stop  offset="0.4193" style="stop-color:#030303"/>
				<stop  offset="0.5248" style="stop-color:#000000"/>
			</linearGradient>
			<path style="opacity:0.38;fill:url(#SVGID_00000121963954770983321460000006540563776152411829_);" d="M34.24,288.69
				c-7.36,1.37-13.91,5.45-17.3,11.6c-5.78,10.45-0.3,22.83,12.24,27.64c5.93,2.28,12.36,2.43,18.12,0.89
				c1.14,5.97,5.71,11.37,12.79,14.09c10.71,4.11,23.27,0.6,28.95-7.82c2.06,2.25,4.79,4.13,8.09,5.4c9.58,3.68,20.71,1,26.58-5.92
				c2.48,2.42,5.61,4.44,9.3,5.86c13.68,5.25,29.87,0.26,36.17-11.13c5.66-10.23,1.43-22.14-9.39-28.28
				c1.8-1.44,3.31-3.19,4.42-5.19c4.76-8.62,0.24-18.83-10.1-22.8c-7.14-2.74-15.18-1.8-21.05,1.88
				c-1.78-7.07-7.42-13.37-15.9-16.63c-6.9-2.65-14.41-2.78-21.06-0.87c-1.79-2.98-4.75-5.51-8.67-7.01
				c-8.62-3.31-18.73-0.53-23.38,6.19c-0.03-0.01-0.05-0.02-0.08-0.03c-12.53-4.82-27.39-0.25-33.16,10.2
				C26.68,274.25,28.35,282.72,34.24,288.69z"/>
			
				<linearGradient id="SVGID_00000054233717387123318010000011443607814075309976_" gradientUnits="userSpaceOnUse" x1="-2116.7583" y1="-3365.3623" x2="-2116.7583" y2="-3528.1794" gradientTransform="matrix(-1 0 0 -1 -2047.3116 -3136.9746)">
				<stop  offset="0" style="stop-color:#E6E6E6"/>
				<stop  offset="0.0266" style="stop-color:#C7C7C7"/>
				<stop  offset="0.0724" style="stop-color:#999999"/>
				<stop  offset="0.1211" style="stop-color:#707070"/>
				<stop  offset="0.172" style="stop-color:#4D4D4D"/>
				<stop  offset="0.2258" style="stop-color:#313131"/>
				<stop  offset="0.2833" style="stop-color:#1B1B1B"/>
				<stop  offset="0.3464" style="stop-color:#0C0C0C"/>
				<stop  offset="0.4193" style="stop-color:#030303"/>
				<stop  offset="0.5248" style="stop-color:#000000"/>
			</linearGradient>
			<path style="opacity:0.24;fill:url(#SVGID_00000054233717387123318010000011443607814075309976_);" d="M133.59,276.15
				c-7.56-3.29-15.85-4.18-23.65-3.06c-2.29-16.03-13.71-30.87-32.16-38.92c-25.93-11.3-57.15-5.49-75.05,12.61
				c-4.01-4.84-9.45-8.97-16.15-11.9c-0.44-0.19-0.88-0.36-1.32-0.54v146.98c6.43-1.22,12.5-3.67,17.64-7.25
				c3.82,5.4,9.46,10.03,16.63,13.16c20.49,8.94,45.8,2.34,56.53-14.74c2.05-3.28,3.43-6.72,4.15-10.18
				c16.9,4.3,35.62-1.89,44.11-15.41c2.77-4.42,4.11-9.13,4.23-13.79c8.65-2.51,16.23-7.63,20.81-14.93
				C158.94,302.94,151.87,284.13,133.59,276.15z"/>
			
				<linearGradient id="SVGID_00000176765107028698758380000011057928296258988988_" gradientUnits="userSpaceOnUse" x1="-2352.291" y1="-3383.9841" x2="-2352.291" y2="-3462.9709" gradientTransform="matrix(-1 0 0 -1 -2047.3116 -3136.9746)">
				<stop  offset="0" style="stop-color:#E6E6E6"/>
				<stop  offset="0.0266" style="stop-color:#C7C7C7"/>
				<stop  offset="0.0724" style="stop-color:#999999"/>
				<stop  offset="0.1211" style="stop-color:#707070"/>
				<stop  offset="0.172" style="stop-color:#4D4D4D"/>
				<stop  offset="0.2258" style="stop-color:#313131"/>
				<stop  offset="0.2833" style="stop-color:#1B1B1B"/>
				<stop  offset="0.3464" style="stop-color:#0C0C0C"/>
				<stop  offset="0.4193" style="stop-color:#030303"/>
				<stop  offset="0.5248" style="stop-color:#000000"/>
			</linearGradient>
			<path style="opacity:0.96;fill:url(#SVGID_00000176765107028698758380000011057928296258988988_);" d="M251.43,307.89
				c4.5,1.96,9.42,2.56,14.09,2c1.58,4.08,4.99,7.66,9.91,9.81c7.51,3.27,16.35,2.25,22.47-2.02c1.85,2.62,4.59,4.86,8.07,6.38
				c9.94,4.34,22.22,1.13,27.43-7.15c1-1.59,1.66-3.26,2.01-4.94c8.2,2.08,17.28-0.92,21.4-7.47c1.34-2.14,1.99-4.43,2.05-6.69
				c4.2-1.22,7.87-3.7,10.1-7.24c4.64-7.39,1.21-16.52-7.65-20.38c-3.67-1.6-7.69-2.03-11.47-1.49c-1.11-7.78-6.65-14.98-15.6-18.88
				c-12.58-5.48-27.73-2.66-36.41,6.12c-1.95-2.35-4.58-4.35-7.83-5.77c-10.66-4.65-23.82-1.21-29.41,7.67
				c-2.75,4.38-3.13,9.26-1.55,13.64c-7.19,0.84-13.81,4.44-17.44,10.21C235.63,291.19,240.03,302.92,251.43,307.89z"/>
			
				<linearGradient id="SVGID_00000168804411124335719430000017783882244588548007_" gradientUnits="userSpaceOnUse" x1="-2449.8367" y1="-3300.2974" x2="-2449.8367" y2="-3515.2722" gradientTransform="matrix(-1 0 0 -1 -2047.3116 -3136.9746)">
				<stop  offset="0" style="stop-color:#E6E6E6"/>
				<stop  offset="0.0266" style="stop-color:#C7C7C7"/>
				<stop  offset="0.0724" style="stop-color:#999999"/>
				<stop  offset="0.1211" style="stop-color:#707070"/>
				<stop  offset="0.172" style="stop-color:#4D4D4D"/>
				<stop  offset="0.2258" style="stop-color:#313131"/>
				<stop  offset="0.2833" style="stop-color:#1B1B1B"/>
				<stop  offset="0.3464" style="stop-color:#0C0C0C"/>
				<stop  offset="0.4193" style="stop-color:#030303"/>
				<stop  offset="0.5248" style="stop-color:#000000"/>
			</linearGradient>
			<path style="opacity:0.72;fill:url(#SVGID_00000168804411124335719430000017783882244588548007_);" d="M455.81,178.67
				c-14.1,1.92-26.32,8.46-34.4,17.7c-5.11-1.59-10.63-2.5-16.42-2.5c-26,0-47.08,17.57-47.08,39.23c0,5.25,1.27,10.25,3.51,14.83
				c-7.57,7.23-12.19,16.65-12.19,27c0,16.48,11.68,30.66,28.49,37.21c-0.26,2.07-0.4,4.16-0.4,6.28
				c0,33.08,32.18,59.89,71.87,59.89c2.23,0,4.44-0.11,6.62-0.28V178.67z"/>
			
				<linearGradient id="SVGID_00000106834649026682650050000010290367215089999261_" gradientUnits="userSpaceOnUse" x1="-2233.2842" y1="-3350.8665" x2="-2233.2842" y2="-3416.5134" gradientTransform="matrix(-1 0 0 -1 -2047.3116 -3136.9746)">
				<stop  offset="0" style="stop-color:#E6E6E6"/>
				<stop  offset="0.0266" style="stop-color:#C7C7C7"/>
				<stop  offset="0.0724" style="stop-color:#999999"/>
				<stop  offset="0.1211" style="stop-color:#707070"/>
				<stop  offset="0.172" style="stop-color:#4D4D4D"/>
				<stop  offset="0.2258" style="stop-color:#313131"/>
				<stop  offset="0.2833" style="stop-color:#1B1B1B"/>
				<stop  offset="0.3464" style="stop-color:#0C0C0C"/>
				<stop  offset="0.4193" style="stop-color:#030303"/>
				<stop  offset="0.5248" style="stop-color:#000000"/>
			</linearGradient>
			<path style="opacity:0.77;fill:url(#SVGID_00000106834649026682650050000010290367215089999261_);" d="M141.65,247.97
				c0,5.03,3.57,9.36,8.7,11.36c-0.08,0.63-0.12,1.27-0.12,1.92c0,10.1,9.83,18.29,21.95,18.29c7.09,0,13.4-2.81,17.41-7.16
				c2.94,1.9,6.62,3.03,10.62,3.03c9.6,0,17.38-6.48,17.38-14.48c0-1.04-0.13-2.05-0.38-3.03c0.13,0.01,0.25,0.01,0.38,0.01
				c7.02,0,12.72-4.74,12.72-10.6c0-4.74-3.74-8.76-8.9-10.11c0.81-1.61,1.26-3.38,1.26-5.24c0-7.48-7.28-13.55-16.26-13.55
				c-0.42,0-0.84,0.01-1.25,0.04c-2.63-2.77-6.69-4.54-11.26-4.54c-4.93,0-9.28,2.07-11.87,5.22c-1.63-0.46-3.38-0.72-5.2-0.72
				c-5.4,0-10.18,2.21-13.13,5.59c-1.56-0.49-3.25-0.76-5.01-0.76c-7.94,0-14.38,5.36-14.38,11.98c0,1.6,0.39,3.13,1.07,4.53
				C143.06,241.93,141.65,244.81,141.65,247.97z"/>
			
				<linearGradient id="SVGID_00000116216570497049355680000016240958312873991312_" gradientUnits="userSpaceOnUse" x1="-2303.3545" y1="-3325.4221" x2="-2303.3545" y2="-3464.3384" gradientTransform="matrix(-1 0 0 -1 -2047.3116 -3136.9746)">
				<stop  offset="0" style="stop-color:#E6E6E6"/>
				<stop  offset="0.0266" style="stop-color:#C7C7C7"/>
				<stop  offset="0.0724" style="stop-color:#999999"/>
				<stop  offset="0.1211" style="stop-color:#707070"/>
				<stop  offset="0.172" style="stop-color:#4D4D4D"/>
				<stop  offset="0.2258" style="stop-color:#313131"/>
				<stop  offset="0.2833" style="stop-color:#1B1B1B"/>
				<stop  offset="0.3464" style="stop-color:#0C0C0C"/>
				<stop  offset="0.4193" style="stop-color:#030303"/>
				<stop  offset="0.5248" style="stop-color:#000000"/>
			</linearGradient>
			<path style="opacity:0.88;fill:url(#SVGID_00000116216570497049355680000016240958312873991312_);" d="M162.23,252.17
				c2.61,2.35,5.73,4.31,9.2,5.77c-6.48,4.69-11.07,11.13-12.68,18.44c-0.43,1.91-0.64,3.86-0.64,5.86
				c0,17.75,17.26,32.14,38.56,32.14c8.54,0,16.43-2.31,22.83-6.23c5.96,11.31,19.53,19.21,35.31,19.21
				c18.93,0,34.62-11.36,37.91-26.34c6.92,4.47,15.56,7.16,24.99,7.16c22.57,0,40.86-15.24,40.86-34.05
				c0-16.44-14-30.17-32.61-33.35c2.63-4.22,4.14-9.01,4.14-14.1c0-16.9-16.44-30.61-36.73-30.61c-9.11,0-17.45,2.76-23.86,7.34
				c-6.4-8.97-18.14-14.97-31.59-14.97c-16.63,0-30.67,9.21-35.2,21.85c-4.86-2.41-10.53-3.78-16.59-3.78
				c-18.01,0-32.61,12.17-32.61,27.18C153.52,240.83,156.82,247.31,162.23,252.17z"/>
			
				<linearGradient id="SVGID_00000046331463345518243520000004835427791257006492_" gradientUnits="userSpaceOnUse" x1="-2230.3323" y1="-3374.2852" x2="-2230.3323" y2="-3517.2998" gradientTransform="matrix(-1 0 0 -1 -2047.3116 -3136.9746)">
				<stop  offset="0" style="stop-color:#E6E6E6"/>
				<stop  offset="0.0266" style="stop-color:#C7C7C7"/>
				<stop  offset="0.0724" style="stop-color:#999999"/>
				<stop  offset="0.1211" style="stop-color:#707070"/>
				<stop  offset="0.172" style="stop-color:#4D4D4D"/>
				<stop  offset="0.2258" style="stop-color:#313131"/>
				<stop  offset="0.2833" style="stop-color:#1B1B1B"/>
				<stop  offset="0.3464" style="stop-color:#0C0C0C"/>
				<stop  offset="0.4193" style="stop-color:#030303"/>
				<stop  offset="0.5248" style="stop-color:#000000"/>
			</linearGradient>
			<path style="opacity:0.83;fill:url(#SVGID_00000046331463345518243520000004835427791257006492_);" d="M48.78,327.11
				c-1.19,17.28,14.65,32.11,35.4,33.11c8.54,0.41,16.57-1.62,23.15-5.32c5.56,11.7,18.83,20.28,34.88,21.05
				c11.02,0.53,21.24-2.7,28.88-8.35c4.68,7.15,13.55,12.19,24.02,12.69c9.41,0.45,18.01-2.87,23.76-8.37
				c5.63,3.55,12.54,5.8,20.12,6.16c20.38,0.98,37.86-12,39.03-28.98c0.22-3.12-0.14-6.15-0.98-9.04c0.84-1.15,1.55-2.37,2.19-3.61
				c19.95,0.51,36.88-12.28,38.04-28.99c1.18-16.98-14.39-31.55-34.77-32.52c-2.21-0.11-4.38-0.02-6.51,0.19
				c-3.79-8.6-13.4-14.95-25.08-15.52c-5.13-0.25-10.04,0.66-14.33,2.45c-3.82-13.47-17.89-23.84-35.32-24.68
				c-16.2-0.78-30.65,6.9-37.16,18.42c-6.03-4.02-13.56-6.58-21.85-6.98c-16.1-0.77-30.44,6.79-37.01,18.2
				c-1.9-0.45-3.89-0.74-5.94-0.84c-15.29-0.74-28.4,8.99-29.28,21.74c-0.29,4.21,0.81,8.22,2.94,11.73
				C59.54,303.91,49.67,314.39,48.78,327.11z"/>
			
				<linearGradient id="SVGID_00000037680276023185094260000008234228487670226095_" gradientUnits="userSpaceOnUse" x1="-2120.2673" y1="-3316.7251" x2="-2120.2673" y2="-3443.3926" gradientTransform="matrix(-1 0 0 -1 -2047.3116 -3136.9746)">
				<stop  offset="0" style="stop-color:#E6E6E6"/>
				<stop  offset="0.0266" style="stop-color:#C7C7C7"/>
				<stop  offset="0.0724" style="stop-color:#999999"/>
				<stop  offset="0.1211" style="stop-color:#707070"/>
				<stop  offset="0.172" style="stop-color:#4D4D4D"/>
				<stop  offset="0.2258" style="stop-color:#313131"/>
				<stop  offset="0.2833" style="stop-color:#1B1B1B"/>
				<stop  offset="0.3464" style="stop-color:#0C0C0C"/>
				<stop  offset="0.4193" style="stop-color:#030303"/>
				<stop  offset="0.5248" style="stop-color:#000000"/>
			</linearGradient>
			<path style="opacity:0.21;fill:url(#SVGID_00000037680276023185094260000008234228487670226095_);" d="M129.8,213.06
				c-1.96-0.1-3.88-0.02-5.77,0.17c-3.35-7.62-11.87-13.24-22.21-13.74c-4.55-0.22-8.89,0.59-12.69,2.17
				c-3.38-11.93-15.85-21.11-31.29-21.86c-14.35-0.69-27.15,6.11-32.91,16.32c-5.34-3.56-12.01-5.83-19.35-6.18
				c-7.46-0.36-14.48,1.32-20.32,4.43v101.58c5.57,3.8,12.57,6.22,20.3,6.6c9.76,0.47,18.81-2.39,25.57-7.4
				c4.15,6.33,12,10.8,21.27,11.24c8.33,0.4,15.95-2.54,21.04-7.42c4.99,3.14,11.1,5.14,17.82,5.46
				c18.05,0.87,33.53-10.62,34.57-25.67c0.19-2.76-0.12-5.44-0.87-8.01c0.74-1.02,1.38-2.1,1.94-3.2
				c17.67,0.45,32.67-10.88,33.69-25.68C161.64,226.83,147.85,213.93,129.8,213.06z"/>
			
				<linearGradient id="SVGID_00000182517231777420978090000011275120493697335429_" gradientUnits="userSpaceOnUse" x1="-2097.2322" y1="-3315.6646" x2="-2097.2322" y2="-3474.2368" gradientTransform="matrix(-1 0 0 -1 -2047.3116 -3136.9746)">
				<stop  offset="0" style="stop-color:#E6E6E6"/>
				<stop  offset="0.0266" style="stop-color:#C7C7C7"/>
				<stop  offset="0.0724" style="stop-color:#999999"/>
				<stop  offset="0.1211" style="stop-color:#707070"/>
				<stop  offset="0.172" style="stop-color:#4D4D4D"/>
				<stop  offset="0.2258" style="stop-color:#313131"/>
				<stop  offset="0.2833" style="stop-color:#1B1B1B"/>
				<stop  offset="0.3464" style="stop-color:#0C0C0C"/>
				<stop  offset="0.4193" style="stop-color:#030303"/>
				<stop  offset="0.5248" style="stop-color:#000000"/>
			</linearGradient>
			<path style="opacity:0.37;fill:url(#SVGID_00000182517231777420978090000011275120493697335429_);" d="M98.81,235.61
				c-5.37-2.69-11.31-3.93-17.15-3.86c3.24-8.19-0.61-17.45-9.85-22.07c-2.06-1.03-4.25-1.75-6.47-2.19
				c-2.44-8.33-8.7-15.89-18.23-20.66c-0.06-0.03-0.12-0.05-0.18-0.09c-1.89-1.77-4.12-3.35-6.69-4.64
				c-13.22-6.62-30.25-3.3-38.67,7.32c-1.08,0.73-2.12,1.5-3.12,2.32c-1.19-0.95-2.49-1.84-3.96-2.58c-2.91-1.46-6.05-2.3-9.22-2.57
				v149.79c11.48-2.12,21.94-8,28.47-17.06c0.58-0.79,1.09-1.6,1.58-2.42c0.73,0.42,1.45,0.86,2.23,1.24
				c19.82,9.92,45.52,4.57,57.43-11.94c4.58-6.36,6.43-13.44,5.85-20.32c11.45,0.36,22.78-4.34,29.1-13.11
				C119.18,259.95,114.2,243.31,98.81,235.61z"/>
			
				<linearGradient id="SVGID_00000157278704386936735550000016334276809094832012_" gradientUnits="userSpaceOnUse" x1="-2375.1604" y1="-3302.4736" x2="-2375.1604" y2="-3470.1897" gradientTransform="matrix(-1 0 0 -1 -2047.3116 -3136.9746)">
				<stop  offset="0" style="stop-color:#E6E6E6"/>
				<stop  offset="0.0266" style="stop-color:#C7C7C7"/>
				<stop  offset="0.0724" style="stop-color:#999999"/>
				<stop  offset="0.1211" style="stop-color:#707070"/>
				<stop  offset="0.172" style="stop-color:#4D4D4D"/>
				<stop  offset="0.2258" style="stop-color:#313131"/>
				<stop  offset="0.2833" style="stop-color:#1B1B1B"/>
				<stop  offset="0.3464" style="stop-color:#0C0C0C"/>
				<stop  offset="0.4193" style="stop-color:#030303"/>
				<stop  offset="0.5248" style="stop-color:#000000"/>
			</linearGradient>
			<path style="opacity:0.81;fill:url(#SVGID_00000157278704386936735550000016334276809094832012_);" d="M455.81,272.7v-44.88
				c-1.15-0.76-2.36-1.47-3.65-2.11c-5.68-2.84-11.96-4.16-18.14-4.09c3.43-8.66-0.64-18.45-10.42-23.35
				c-2.18-1.09-4.49-1.85-6.84-2.31c-2.58-8.81-9.21-16.81-19.28-21.85c-0.06-0.03-0.13-0.06-0.2-0.09c-2-1.88-4.36-3.55-7.08-4.91
				c-13.99-7-32-3.49-40.9,7.74c-1.14,0.77-2.24,1.58-3.3,2.45c-1.26-1.01-2.63-1.95-4.19-2.73c-9.99-5-22.6-3.17-30.06,3.84
				c-3.15-3.44-7.1-6.48-11.82-8.84c-20.01-10.01-45.96-4.62-57.99,12.05c-3.89,5.39-5.81,11.3-6,17.17
				c-12.23-0.54-24.42,4.41-31.17,13.78c-9.73,13.5-4.49,31.01,11.71,39.12c2.99,1.5,6.14,2.57,9.36,3.23
				c-5.01,14.07,1.73,29.7,17.53,37.62c9.97,4.99,21.51,5.86,31.83,3.26c1.38,11.94,9.28,23.19,22.56,29.84
				c22.23,11.13,51.07,5.13,64.43-13.39c0.61-0.84,1.16-1.69,1.68-2.56c0.78,0.45,1.54,0.91,2.36,1.32
				c20.96,10.49,48.15,4.84,60.75-12.63c4.84-6.73,6.8-14.22,6.19-21.5C441.29,279.12,449.36,276.95,455.81,272.7z"/>
			
				<linearGradient id="SVGID_00000112605297633111833910000000193538551924902805_" gradientUnits="userSpaceOnUse" x1="-2165.9023" y1="-3295.2229" x2="-2165.9023" y2="-3460.5112" gradientTransform="matrix(-1 0 0 -1 -2047.3116 -3136.9746)">
				<stop  offset="0" style="stop-color:#E6E6E6"/>
				<stop  offset="0.0266" style="stop-color:#C7C7C7"/>
				<stop  offset="0.0724" style="stop-color:#999999"/>
				<stop  offset="0.1211" style="stop-color:#707070"/>
				<stop  offset="0.172" style="stop-color:#4D4D4D"/>
				<stop  offset="0.2258" style="stop-color:#313131"/>
				<stop  offset="0.2833" style="stop-color:#1B1B1B"/>
				<stop  offset="0.3464" style="stop-color:#0C0C0C"/>
				<stop  offset="0.4193" style="stop-color:#030303"/>
				<stop  offset="0.5248" style="stop-color:#000000"/>
			</linearGradient>
			<path style="opacity:0.6;fill:url(#SVGID_00000112605297633111833910000000193538551924902805_);" d="M-4.4,241.72
				c-5.8,14.5,3.59,30.16,20.98,35c2.97,0.83,5.99,1.26,8.96,1.38c-2.54,18.78,10.88,37.11,33.25,43.33
				c21,5.84,43.4-0.82,55.57-15.14c16.36,2.96,33.11-4.76,38.54-18.3c0.07-0.19,0.15-0.38,0.21-0.57c2.04,0.96,4.24,1.78,6.55,2.42
				c19.48,5.42,40.55-3.35,47.05-19.58c0.93-2.31,1.5-4.66,1.76-6.98c14.72-1.91,27.68-10.45,32.72-23.03
				c7.19-17.96-4.45-37.38-26.01-43.38c-7.62-2.12-15.46-2.23-22.73-0.76c-1.44-15.94-14.08-30.37-33.42-35.75
				c-20.08-5.58-41.42,0.25-53.9,13.28c-4.63-5.04-11.06-9.03-18.83-11.19c-17.67-4.92-36.56,1.15-46.02,13.76
				c-15.87,1.13-30.17,9.93-35.52,23.32c-3.92,9.77-2.23,19.94,3.56,28.17C2.56,230.99-2.02,235.78-4.4,241.72z"/>
			
				<linearGradient id="SVGID_00000156589432119512986550000017967124002313496746_" gradientUnits="userSpaceOnUse" x1="-2461.0247" y1="-3364.1418" x2="-2461.0247" y2="-3419.9243" gradientTransform="matrix(-1 0 0 -1 -2047.3116 -3136.9746)">
				<stop  offset="0" style="stop-color:#E6E6E6"/>
				<stop  offset="0.0266" style="stop-color:#C7C7C7"/>
				<stop  offset="0.0724" style="stop-color:#999999"/>
				<stop  offset="0.1211" style="stop-color:#707070"/>
				<stop  offset="0.172" style="stop-color:#4D4D4D"/>
				<stop  offset="0.2258" style="stop-color:#313131"/>
				<stop  offset="0.2833" style="stop-color:#1B1B1B"/>
				<stop  offset="0.3464" style="stop-color:#0C0C0C"/>
				<stop  offset="0.4193" style="stop-color:#030303"/>
				<stop  offset="0.5248" style="stop-color:#000000"/>
			</linearGradient>
			<path style="opacity:0.94;fill:url(#SVGID_00000156589432119512986550000017967124002313496746_);" d="M455.81,253.25
				c-1.66-2.23-4.32-3.95-7.61-4.64c-0.07-0.02-0.15-0.03-0.22-0.05c0.39-0.67,0.68-1.39,0.86-2.15c1.15-4.83-2.61-9.52-8.41-10.48
				c-1.9-0.31-3.78-0.18-5.49,0.3c-1.52-4.15-5.54-7.55-10.96-8.69c-6.18-1.29-12.42,0.73-16.02,4.73
				c-0.98-0.41-2.02-0.74-3.13-0.97c-8.07-1.69-16.25,2.4-18.28,9.12c-0.53,1.78-0.58,3.56-0.22,5.26
				c-8.3,0.87-14.73,6.77-14.73,13.93c0,7.76,7.55,14.04,16.86,14.04c0.74,0,1.46-0.04,2.18-0.12c1.42,4.3,5.5,7.86,11.07,9.02
				c7.01,1.47,14.11-1.35,17.33-6.45c1.19,0.59,2.5,1.05,3.91,1.35c7.81,1.63,15.72-2.32,17.68-8.82l0.02-0.07
				c0.46,0.15,0.93,0.27,1.42,0.37c5.43,1.14,10.92-0.87,13.73-4.63V253.25z"/>
		</g>
	</g>
</g>
</svg>
