<?xml version="1.0" encoding="utf-8"?>
<!-- Generator: Adobe Illustrator 26.2.1, SVG Export Plug-In . SVG Version: 6.00 Build 0)  -->
<svg version="1.1" id="Capa_1" xmlns="http://www.w3.org/2000/svg" xmlns:xlink="http://www.w3.org/1999/xlink" x="0px" y="0px"
	 viewBox="0 0 300 202" style="enable-background:new 0 0 300 202;" xml:space="preserve">
<style type="text/css">
	.st0{fill:#FFDC7B;}
	.st1{fill:#FFFFFF;}
</style>
<g>
	<g>
		<g>
			<path class="st0" d="M146.82,43.55L146.82,43.55c-2.46,0-4.46-2-4.46-4.46V7.37c0-2.46,2-4.46,4.46-4.46l0,0
				c2.46,0,4.46,2,4.46,4.46v31.72C151.28,41.55,149.28,43.55,146.82,43.55z"/>
		</g>
		<g>
			<path class="st0" d="M183.11,58.58L183.11,58.58c-1.74-1.74-1.74-4.56,0-6.31l22.43-22.43c1.74-1.74,4.56-1.74,6.31,0l0,0
				c1.74,1.74,1.74,4.56,0,6.31l-22.43,22.43C187.68,60.32,184.85,60.32,183.11,58.58z"/>
		</g>
		<g>
			<path class="st0" d="M54.85,94.88L54.85,94.88c0-2.46,2-4.46,4.46-4.46h31.72c2.46,0,4.46,2,4.46,4.46l0,0
				c0,2.46-2,4.46-4.46,4.46H59.31C56.85,99.34,54.85,97.34,54.85,94.88z"/>
		</g>
		<g>
			<path class="st0" d="M81.79,29.85L81.79,29.85c1.74-1.74,4.56-1.74,6.31,0l22.43,22.43c1.74,1.74,1.74,4.56,0,6.31l0,0
				c-1.74,1.74-4.56,1.74-6.31,0L81.79,36.15C80.04,34.41,80.04,31.59,81.79,29.85z"/>
		</g>
	</g>
	<path class="st1" d="M267.25,142.89c-0.12,0-0.23,0.03-0.35,0.04c2.2-5.1,3.44-10.71,3.44-16.62c0-23.17-18.78-41.95-41.94-41.95
		c-8.19,0-15.8,2.38-22.26,6.44c-8.73-21.23-29.6-36.18-53.97-36.18c-32.23,0-58.36,26.13-58.36,58.36c0,2.44,0.2,4.82,0.49,7.18
		c-0.16,0-0.32-0.02-0.49-0.02c-21.61,0-39.13,17.52-39.13,39.13s17.52,39.13,39.13,39.13h173.45c15.33,0,27.75-12.42,27.75-27.75
		C295,155.32,282.58,142.89,267.25,142.89z"/>
</g>
<g>
	<path d="M107.23,169.38l-4.13-11.86H91.79l-4.18,11.86h-0.8l10.34-29.53h0.59l10.38,29.53H107.23z M97.44,141.54l-5.36,15.19h10.72
		L97.44,141.54z"/>
	<path d="M112.46,169.38v-29.53h10.38c5.57,0,7.93,3.8,7.93,9.03c0,3.71-1.05,8.65-8.48,8.65h-9.03v11.86H112.46z M122.21,156.72
		c7.3,0,7.76-5.27,7.76-7.85c0-4.72-1.9-8.18-7.09-8.18h-9.62v16.03H122.21z"/>
	<path d="M137.1,169.38v-28.65l-3.63-0.08v-0.8h4.43v29.53H137.1z"/>
	<path d="M170.98,168.41c-6.67,2.62-15.23,2.36-15.23-6.75v-13.54c0-4.6,1.43-6.29,3.67-7.64c2.74-1.6,7.55-1.22,10.51,0.34
		l-0.34,0.72c-1.48-0.63-3.16-1.31-5.53-1.31c-2.36,0-7.51,0.72-7.51,7.51v13.84c0,7.43,6.37,9.11,14.18,6.08L170.98,168.41z"/>
	<path d="M176.38,169.38v-29.53h0.8v28.69h14.43v0.84H176.38z"/>
	<path d="M196.84,169.38v-28.65l-3.63-0.08v-0.8h4.43v29.53H196.84z"/>
	<path d="M227,169.38v-27.34l-10.21,27.34h-0.76l-10.12-27.34v27.34h-0.76v-29.53h0.76l10.55,28.27L227,139.85h0.76v29.53H227z"/>
	<path d="M252.52,169.38l-4.13-11.86h-11.31l-4.18,11.86h-0.8l10.34-29.53h0.59l10.38,29.53H252.52z M242.74,141.54l-5.36,15.19
		h10.72L242.74,141.54z"/>
</g>
</svg>
