<?xml version="1.0" standalone="no"?>
<!DOCTYPE svg PUBLIC "-//W3C//DTD SVG 20010904//EN"
 "http://www.w3.org/TR/2001/REC-SVG-20010904/DTD/svg10.dtd">
<svg version="1.0" xmlns="http://www.w3.org/2000/svg"
 width="512.000000pt" height="512.000000pt" viewBox="0 0 512.000000 512.000000"
 preserveAspectRatio="xMidYMid meet">
<metadata>
Created by potrace 1.14, written by Peter Selinger 2001-2017
</metadata>
<g transform="translate(0.000000,512.000000) scale(0.100000,-0.100000)"
fill="#000000" stroke="none">
<path d="M3228 5005 c-46 -25 -54 -57 -53 -190 2 -163 2 -159 30 -188 48 -48
131 -40 165 16 17 27 20 51 20 155 0 167 -19 211 -98 218 -21 2 -49 -3 -64
-11z"/>
<path d="M2014 4501 c-46 -28 -62 -91 -36 -137 10 -19 132 -144 173 -178 43
-37 97 -36 138 3 29 27 34 37 34 76 0 8 -1 22 -2 31 -1 21 -166 191 -203 210
-37 19 -67 18 -104 -5z"/>
<path d="M4439 4503 c-51 -34 -191 -183 -198 -210 -9 -31 4 -77 28 -105 18
-21 70 -33 106 -24 37 9 212 188 220 225 7 31 -12 88 -36 108 -27 22 -92 26
-120 6z"/>
<path d="M3268 4385 c-2 -2 -42 -6 -89 -9 -47 -4 -96 -9 -110 -12 -13 -3 -35
-7 -49 -10 -63 -12 -193 -60 -277 -101 -316 -157 -556 -467 -627 -811 -23
-108 -26 -137 -26 -245 -1 -121 5 -180 29 -280 l18 -74 -67 -61 c-122 -110
-234 -285 -276 -430 -10 -33 -20 -51 -27 -48 -156 69 -236 86 -372 81 -198 -7
-361 -78 -498 -217 -85 -86 -151 -201 -177 -305 l-13 -51 -66 -17 c-289 -73
-533 -318 -613 -617 -23 -88 -31 -267 -15 -358 54 -316 275 -573 582 -675 43
-15 100 -30 125 -33 61 -9 2893 -9 2950 0 225 35 470 200 586 394 107 180 155
407 123 581 -5 26 -11 59 -14 71 -32 177 -174 389 -341 509 -65 47 -215 119
-264 128 -3 1 -23 5 -45 10 -22 4 -43 8 -47 7 -11 -3 -10 16 2 58 11 42 18
100 19 157 1 34 5 43 24 48 65 20 269 137 313 179 6 6 30 27 54 46 36 30 90
89 168 185 54 67 148 258 177 361 44 155 60 360 41 499 -77 551 -526 984
-1067 1030 -41 4 -86 8 -101 9 -15 2 -29 2 -30 1z m-1038 -1766 c0 -23 127
-194 195 -263 182 -184 377 -289 636 -342 86 -18 282 -24 370 -12 l46 7 -9
-57 c-5 -31 -20 -91 -33 -132 -29 -87 -31 -127 -9 -158 23 -33 62 -49 129 -51
262 -9 499 -190 590 -450 41 -119 38 -288 -8 -415 -80 -219 -280 -388 -502
-424 -54 -8 -2817 -8 -2875 0 -202 31 -401 180 -485 364 -59 129 -76 302 -41
434 64 246 270 438 516 480 120 21 144 39 155 115 18 120 65 221 138 297 237
246 625 209 812 -78 43 -66 72 -151 80 -239 4 -41 14 -80 24 -95 42 -59 120
-63 166 -8 23 28 26 39 24 97 -5 140 -61 297 -142 404 -21 26 -37 55 -37 65 0
10 9 53 20 96 32 121 97 240 183 334 39 42 57 52 57 31z"/>
<path d="M1508 3287 c-14 -12 -31 -32 -38 -45 -24 -49 11 -121 69 -139 39 -13
252 -9 279 6 73 39 71 155 -4 189 -15 7 -77 12 -152 12 -117 0 -129 -2 -154
-23z"/>
<path d="M4746 3295 c-42 -22 -55 -44 -56 -92 0 -49 29 -89 75 -101 43 -12
265 -7 298 7 35 14 61 71 53 116 -4 17 -18 43 -32 56 -24 23 -33 24 -167 27
-114 2 -148 0 -171 -13z"/>
<path d="M4284 2196 c-59 -59 -47 -99 58 -206 124 -127 145 -137 213 -105 37
18 55 51 55 101 0 30 -12 47 -87 125 -48 50 -100 97 -115 105 -47 24 -86 18
-124 -20z"/>
</g>
</svg>
